<svg id="visual" viewBox="0 0 960 300" width="960" height="300" xmlns="http://www.w3.org/2000/svg" xmlns:xlink="http://www.w3.org/1999/xlink" version="1.1"><path d="M0 201L6.7 186C13.3 171 26.7 141 40 138C53.3 135 66.7 159 80 171.3C93.3 183.7 106.7 184.3 120 166.3C133.3 148.3 146.7 111.7 160 94.5C173.3 77.3 186.7 79.7 200 79.2C213.3 78.7 226.7 75.3 240 89.5C253.3 103.7 266.7 135.3 280 143.8C293.3 152.3 306.7 137.7 320 127.8C333.3 118 346.7 113 360 118.7C373.3 124.3 386.7 140.7 400 146.8C413.3 153 426.7 149 440 134C453.3 119 466.7 93 480 92C493.3 91 506.7 115 520 134.7C533.3 154.3 546.7 169.7 560 178.5C573.3 187.3 586.7 189.7 600 188.8C613.3 188 626.7 184 640 166.7C653.3 149.3 666.7 118.7 680 119C693.3 119.3 706.7 150.7 720 147.2C733.3 143.7 746.7 105.3 760 101.3C773.3 97.3 786.7 127.7 800 133.3C813.3 139 826.7 120 840 115.8C853.3 111.7 866.7 122.3 880 131.7C893.3 141 906.7 149 920 150C933.3 151 946.7 145 953.3 142L960 139L960 0L953.3 0C946.7 0 933.3 0 920 0C906.7 0 893.3 0 880 0C866.7 0 853.3 0 840 0C826.7 0 813.3 0 800 0C786.7 0 773.3 0 760 0C746.7 0 733.3 0 720 0C706.7 0 693.3 0 680 0C666.7 0 653.3 0 640 0C626.7 0 613.3 0 600 0C586.7 0 573.3 0 560 0C546.7 0 533.3 0 520 0C506.7 0 493.3 0 480 0C466.7 0 453.3 0 440 0C426.7 0 413.3 0 400 0C386.7 0 373.3 0 360 0C346.7 0 333.3 0 320 0C306.7 0 293.3 0 280 0C266.7 0 253.3 0 240 0C226.7 0 213.3 0 200 0C186.7 0 173.3 0 160 0C146.7 0 133.3 0 120 0C106.7 0 93.3 0 80 0C66.7 0 53.3 0 40 0C26.7 0 13.3 0 6.7 0L0 0Z" fill="#760c97" stroke-linecap="round" stroke-linejoin="miter"></path></svg>