<svg id="visual" viewBox="0 0 960 300" width="960" height="300" xmlns="http://www.w3.org/2000/svg" xmlns:xlink="http://www.w3.org/1999/xlink" version="1.1"><path d="M0 196L22.8 197.8C45.7 199.7 91.3 203.3 137 206.8C182.7 210.3 228.3 213.7 274 215.7C319.7 217.7 365.3 218.3 411.2 211.5C457 204.7 503 190.3 548.8 189.3C594.7 188.3 640.3 200.7 686 204.2C731.7 207.7 777.3 202.3 823 198.3C868.7 194.3 914.3 191.7 937.2 190.3L960 189L960 301L937.2 301C914.3 301 868.7 301 823 301C777.3 301 731.7 301 686 301C640.3 301 594.7 301 548.8 301C503 301 457 301 411.2 301C365.3 301 319.7 301 274 301C228.3 301 182.7 301 137 301C91.3 301 45.7 301 22.8 301L0 301Z" fill="#7d0e81"></path><path d="M0 227L22.8 228.7C45.7 230.3 91.3 233.7 137 230.8C182.7 228 228.3 219 274 213.7C319.7 208.3 365.3 206.7 411.2 207.2C457 207.7 503 210.3 548.8 211C594.7 211.7 640.3 210.3 686 211.7C731.7 213 777.3 217 823 217C868.7 217 914.3 213 937.2 211L960 209L960 301L937.2 301C914.3 301 868.7 301 823 301C777.3 301 731.7 301 686 301C640.3 301 594.7 301 548.8 301C503 301 457 301 411.2 301C365.3 301 319.7 301 274 301C228.3 301 182.7 301 137 301C91.3 301 45.7 301 22.8 301L0 301Z" fill="#67047d"></path><path d="M0 255L22.8 249.3C45.7 243.7 91.3 232.3 137 230.3C182.7 228.3 228.3 235.7 274 240.5C319.7 245.3 365.3 247.7 411.2 248.3C457 249 503 248 548.8 248C594.7 248 640.3 249 686 246.7C731.7 244.3 777.3 238.7 823 236.2C868.7 233.7 914.3 234.3 937.2 234.7L960 235L960 301L937.2 301C914.3 301 868.7 301 823 301C777.3 301 731.7 301 686 301C640.3 301 594.7 301 548.8 301C503 301 457 301 411.2 301C365.3 301 319.7 301 274 301C228.3 301 182.7 301 137 301C91.3 301 45.7 301 22.8 301L0 301Z" fill="#4f0078"></path><path d="M0 264L22.8 261.7C45.7 259.3 91.3 254.7 137 251.5C182.7 248.3 228.3 246.7 274 247.5C319.7 248.3 365.3 251.7 411.2 252.7C457 253.7 503 252.3 548.8 250.7C594.7 249 640.3 247 686 247.5C731.7 248 777.3 251 823 251C868.7 251 914.3 248 937.2 246.5L960 245L960 301L937.2 301C914.3 301 868.7 301 823 301C777.3 301 731.7 301 686 301C640.3 301 594.7 301 548.8 301C503 301 457 301 411.2 301C365.3 301 319.7 301 274 301C228.3 301 182.7 301 137 301C91.3 301 45.7 301 22.8 301L0 301Z" fill="#330073"></path><path d="M0 269L22.8 271.2C45.7 273.3 91.3 277.7 137 279C182.7 280.3 228.3 278.7 274 276.2C319.7 273.7 365.3 270.3 411.2 267.8C457 265.3 503 263.7 548.8 266C594.7 268.3 640.3 274.7 686 277.7C731.7 280.7 777.3 280.3 823 280C868.7 279.7 914.3 279.3 937.2 279.2L960 279L960 301L937.2 301C914.3 301 868.7 301 823 301C777.3 301 731.7 301 686 301C640.3 301 594.7 301 548.8 301C503 301 457 301 411.2 301C365.3 301 319.7 301 274 301C228.3 301 182.7 301 137 301C91.3 301 45.7 301 22.8 301L0 301Z" fill="#00006d"></path></svg>